<svg width="50" height="50" viewBox="0 0 50 50" fill="none" xmlns="http://www.w3.org/2000/svg">
<path d="M45.7921 23.7731C45.0837 11.6897 34.1046 2.37724 21.4588 4.46057C12.7504 5.89807 5.77128 12.9605 4.41711 21.6689C3.62545 26.7105 4.66716 31.4814 6.93799 35.4189L5.0838 42.3147C4.66713 43.8772 6.10459 45.2939 7.64625 44.8564L14.4379 42.9814C17.5213 44.7939 21.1254 45.8355 24.9796 45.8355C36.7296 45.8355 46.4796 35.4814 45.7921 23.7731ZM35.1671 32.7522C34.9796 33.1272 34.7504 33.4814 34.4587 33.8147C33.9379 34.3772 33.3754 34.7939 32.7504 35.0439C32.1254 35.3147 31.4379 35.4397 30.7088 35.4397C29.6463 35.4397 28.5004 35.1897 27.3129 34.6689C26.1046 34.1481 24.9172 33.4605 23.7297 32.6064C22.5213 31.7314 21.3963 30.7522 20.313 29.6897C19.2296 28.6064 18.2712 27.4605 17.3962 26.273C16.5421 25.0855 15.8546 23.898 15.3546 22.7105C14.8546 21.523 14.6046 20.3772 14.6046 19.2939C14.6046 18.5856 14.7296 17.8981 14.9796 17.2731C15.2296 16.6272 15.6255 16.0439 16.188 15.5231C16.8547 14.8564 17.5838 14.5439 18.3546 14.5439C18.6463 14.5439 18.9379 14.6064 19.2087 14.7314C19.4796 14.8564 19.7296 15.0439 19.9171 15.3147L22.3337 18.7314C22.5212 19.0022 22.6671 19.2314 22.7504 19.4605C22.8546 19.6897 22.8963 19.898 22.8963 20.1064C22.8963 20.3564 22.813 20.6064 22.6671 20.8564C22.5213 21.1064 22.3337 21.3564 22.0837 21.6064L21.2921 22.4397C21.1671 22.5647 21.1255 22.6897 21.1255 22.8564C21.1255 22.9397 21.1462 23.023 21.1671 23.1064C21.2087 23.1897 21.2296 23.2522 21.2505 23.3147C21.438 23.6689 21.7713 24.1063 22.2296 24.648C22.7088 25.1897 23.2088 25.7522 23.7505 26.2939C24.313 26.8564 24.8546 27.3563 25.4171 27.8355C25.9588 28.2938 26.4171 28.6064 26.7712 28.7939C26.8337 28.8147 26.8963 28.8563 26.9588 28.8772C27.0421 28.9188 27.1255 28.9189 27.2296 28.9189C27.4171 28.9189 27.5422 28.8564 27.6672 28.7314L28.4587 27.9397C28.7296 27.6689 28.9797 27.4814 29.2088 27.3564C29.4588 27.2106 29.688 27.1272 29.9588 27.1272C30.1671 27.1272 30.3755 27.1689 30.6046 27.273C30.8338 27.3772 31.0837 27.5022 31.3337 27.6897L34.7921 30.148C35.063 30.3355 35.2504 30.5647 35.3754 30.8147C35.4796 31.0856 35.5421 31.3355 35.5421 31.6272C35.4171 31.9814 35.3338 32.3772 35.1671 32.7522Z" fill="black"/>
</svg>
