<svg width="75" height="75" viewBox="0 0 75 75" fill="none" xmlns="http://www.w3.org/2000/svg">
<path d="M41.2188 18.75H21.2188C20.4062 18.75 19.625 18.7812 18.875 18.875C10.4687 19.5937 6.25 24.5625 6.25 33.7188V46.2188C6.25 58.7188 11.25 61.1875 21.2188 61.1875H22.4688C23.1562 61.1875 24.0625 61.6562 24.4688 62.1875L28.2188 67.1875C29.875 69.4062 32.5625 69.4062 34.2188 67.1875L37.9687 62.1875C38.4375 61.5625 39.1875 61.1875 39.9688 61.1875H41.2188C50.375 61.1875 55.3438 57 56.0625 48.5625C56.1562 47.8125 56.1875 47.0312 56.1875 46.2188V33.7188C56.1875 23.75 51.1875 18.75 41.2188 18.75ZM20.3125 43.75C18.5625 43.75 17.1875 42.3438 17.1875 40.625C17.1875 38.9062 18.5938 37.5 20.3125 37.5C22.0312 37.5 23.4375 38.9062 23.4375 40.625C23.4375 42.3438 22.0312 43.75 20.3125 43.75ZM31.2188 43.75C29.4688 43.75 28.0938 42.3438 28.0938 40.625C28.0938 38.9062 29.5 37.5 31.2188 37.5C32.9375 37.5 34.3438 38.9062 34.3438 40.625C34.3438 42.3438 32.9688 43.75 31.2188 43.75ZM42.1562 43.75C40.4062 43.75 39.0312 42.3438 39.0312 40.625C39.0312 38.9062 40.4375 37.5 42.1562 37.5C43.875 37.5 45.2812 38.9062 45.2812 40.625C45.2812 42.3438 43.875 43.75 42.1562 43.75Z" fill="#1E1E1E"/>
<path d="M68.6875 21.2188V33.7188C68.6875 39.9688 66.75 44.2188 62.875 46.5625C61.9375 47.125 60.8438 46.375 60.8438 45.2812L60.875 33.7188C60.875 21.2188 53.7188 14.0625 41.2188 14.0625L22.1875 14.0938C21.0938 14.0938 20.3438 13 20.9063 12.0625C23.25 8.1875 27.5 6.25 33.7188 6.25H53.7188C63.6875 6.25 68.6875 11.25 68.6875 21.2188Z" fill="#1E1E1E"/>
</svg>
