<svg width="25" height="25" viewBox="0 0 300 300" fill="none" xmlns="http://www.w3.org/2000/svg">
<path d="M138.125 186.875L115 210C110.125 214.875 102.375 214.875 97.375 210.125C96 208.75 94.625 207.5 93.25 206.125C80.375 193.125 68.75 179.5 58.375 165.25C48.125 151 39.875 136.75 33.875 122.625C28 108.375 25 94.75 25 81.75C25 73.25 26.5 65.125 29.5 57.625C32.5 50 37.25 43 43.875 36.75C51.875 28.875 60.625 25 69.875 25C73.375 25 76.875 25.75 80 27.25C83.25 28.75 86.125 31 88.375 34.25L117.375 75.125C119.625 78.25 121.25 81.125 122.375 83.875C123.5 86.5 124.125 89.125 124.125 91.5C124.125 94.5 123.25 97.5 121.5 100.375C119.875 103.25 117.5 106.25 114.5 109.25L105 119.125C103.625 120.5 103 122.125 103 124.125C103 125.125 103.125 126 103.375 127C103.75 128 104.125 128.75 104.375 129.5C106.625 133.625 110.5 139 116 145.5C121.625 152 127.625 158.625 134.125 165.25C135.375 166.5 136.75 167.75 138 169C143 173.875 143.125 181.875 138.125 186.875Z" fill="#292D32"/>
<path d="M274.621 229.113C274.621 232.613 273.996 236.238 272.746 239.738C272.371 240.738 271.996 241.738 271.496 242.738C269.371 247.238 266.621 251.488 262.996 255.488C256.871 262.238 250.121 267.113 242.496 270.238C242.371 270.238 242.246 270.363 242.121 270.363C234.746 273.363 226.746 274.988 218.121 274.988C205.371 274.988 191.746 271.988 177.371 265.863C162.996 259.738 148.621 251.488 134.371 241.113C129.496 237.488 124.621 233.863 119.996 229.988L160.871 189.113C164.371 191.738 167.496 193.738 170.121 195.113C170.746 195.363 171.496 195.738 172.371 196.113C173.371 196.488 174.371 196.613 175.496 196.613C177.621 196.613 179.246 195.863 180.621 194.488L190.121 185.113C193.246 181.988 196.246 179.613 199.121 178.113C201.996 176.363 204.871 175.488 207.996 175.488C210.371 175.488 212.871 175.988 215.621 177.113C218.371 178.238 221.246 179.863 224.371 181.988L265.746 211.363C268.996 213.613 271.246 216.238 272.621 219.363C273.871 222.488 274.621 225.613 274.621 229.113Z" fill="#292D32"/>
</svg>
