<svg width="25" height="25" viewBox="0 0 300 300" fill="none" xmlns="http://www.w3.org/2000/svg">
<path d="M212.5 43.75H87.5C50 43.75 25 62.5 25 106.25V193.75C25 237.5 50 256.25 87.5 256.25H212.5C250 256.25 275 237.5 275 193.75V106.25C275 62.5 250 43.75 212.5 43.75ZM218.375 119.875L179.25 151.125C171 157.75 160.5 161 150 161C139.5 161 128.875 157.75 120.75 151.125L81.625 119.875C77.625 116.625 77 110.625 80.125 106.625C83.375 102.625 89.25 101.875 93.25 105.125L132.375 136.375C141.875 144 158 144 167.5 136.375L206.625 105.125C210.625 101.875 216.625 102.5 219.75 106.625C223 110.625 222.375 116.625 218.375 119.875Z" fill="#292D32"/>
</svg>
