<svg width="75" height="75" viewBox="0 0 75 75" fill="none" xmlns="http://www.w3.org/2000/svg">
<path d="M48.117 58.4098C48.5005 58.2121 48.9576 58.5435 48.8715 58.9663L48.4062 61.25C46.875 67.1875 43.4375 68.75 39.2187 68.75H35.8125C31.5937 68.75 28.125 67.1875 26.625 61.2187L26.1793 58.9479C26.0968 58.5277 26.549 58.2003 26.9303 58.3953C30.1833 60.0587 33.777 60.9375 37.5 60.9375C41.2458 60.9375 44.8628 60.0871 48.117 58.4098Z" fill="#1E1E1E"/>
<path d="M48.8939 16.0823C48.9827 16.507 48.5221 16.8411 48.1374 16.6405C44.9608 14.9836 41.3455 14.0625 37.5 14.0625C33.678 14.0625 30.0868 14.9859 26.9123 16.6235C26.5293 16.8211 26.0732 16.49 26.1593 16.0676L26.625 13.7812C28.125 7.8125 31.5937 6.25 35.8125 6.25H39.2188C43.4375 6.25 46.875 7.8125 48.4062 13.75L48.8939 16.0823Z" fill="#1E1E1E"/>
<path d="M37.5 17.1875C26.2813 17.1875 17.1875 26.2813 17.1875 37.5C17.1875 44.0625 20.2812 49.875 25.0937 53.5937H25.125C28.5625 56.25 32.8437 57.8125 37.5 57.8125C42.2187 57.8125 46.5312 56.2187 49.9687 53.5312H50C54.75 49.8125 57.8125 44 57.8125 37.5C57.8125 26.2813 48.7187 17.1875 37.5 17.1875ZM43.5313 44.9375C43.0625 45.4063 42.4687 45.625 41.875 45.625C41.2812 45.625 40.6875 45.4063 40.2187 44.9375L35.8438 40.5625C35.4063 40.125 35.1562 39.5312 35.1562 38.9062V30.1875C35.1562 28.9062 36.2188 27.8437 37.5 27.8437C38.7812 27.8437 39.8438 28.9062 39.8438 30.1875V37.9375L43.5313 41.625C44.4375 42.5312 44.4375 44.0313 43.5313 44.9375Z" fill="#1E1E1E"/>
</svg>
