<svg width="75" height="75" viewBox="0 0 75 75" fill="none" xmlns="http://www.w3.org/2000/svg">
<path d="M62.5 18.75V19.5H46.4687C37.1875 19.5 32.875 23.8125 32.875 33.0938V49.0625H30.4688V60.1562H32.875V64.8438H15.4687C14.1875 64.8438 13.125 63.7812 13.125 62.5C13.125 61.2188 14.1875 60.1562 15.4687 60.1562H25.7812V49.0625H18.75C8.96875 49.0625 6.34375 46.6562 6.25 37.1875V18.75C6.25 8.75 8.75 6.25 18.75 6.25H50C60 6.25 62.5 8.75 62.5 18.75Z" fill="#1E1E1E"/>
<path d="M62.5 24.3438C61.7188 24.25 60.8125 24.1875 59.8437 24.1875H46.4687C39.7812 24.1875 37.5625 26.4063 37.5625 33.0938V60.1563C37.5938 62.0938 37.8125 63.625 38.2812 64.8438C39.375 67.6875 41.8437 68.75 46.4687 68.75H59.8437C66.5312 68.75 68.75 66.5312 68.75 59.8437V33.0938C68.75 27.375 67.125 24.9375 62.5 24.3438ZM53.1563 31.5313C55.875 31.5313 58.0625 33.7188 58.0625 36.4375C58.0625 39.1563 55.875 41.3437 53.1563 41.3437C50.4375 41.3437 48.25 39.1563 48.25 36.4375C48.25 33.7188 50.4375 31.5313 53.1563 31.5313ZM53.1563 59.8437C49.4688 59.8437 46.4687 56.8438 46.4687 53.1563C46.4687 51.625 47 50.1875 47.875 49.0625C49.0937 47.5 51 46.4688 53.1563 46.4688C54.8438 46.4688 56.375 47.0938 57.5312 48.0938C58.9375 49.3438 59.8437 51.1563 59.8437 53.1563C59.8437 56.8438 56.8438 59.8437 53.1563 59.8437Z" fill="#1E1E1E"/>
<path d="M62.5 24.3438C61.7188 24.25 60.8125 24.1875 59.8437 24.1875H46.4687C39.7812 24.1875 37.5625 26.4063 37.5625 33.0938V60.1563C37.5938 62.0938 37.8125 63.625 38.2812 64.8438C39.375 67.6875 41.8437 68.75 46.4687 68.75H59.8437C66.5312 68.75 68.75 66.5312 68.75 59.8437V33.0938C68.75 27.375 67.125 24.9375 62.5 24.3438ZM53.1563 31.5313C55.875 31.5313 58.0625 33.7188 58.0625 36.4375C58.0625 39.1563 55.875 41.3437 53.1563 41.3437C50.4375 41.3437 48.25 39.1563 48.25 36.4375C48.25 33.7188 50.4375 31.5313 53.1563 31.5313ZM53.1563 59.8437C49.4688 59.8437 46.4687 56.8438 46.4687 53.1563C46.4687 51.625 47 50.1875 47.875 49.0625C49.0937 47.5 51 46.4688 53.1563 46.4688C54.8438 46.4688 56.375 47.0938 57.5312 48.0938C58.9375 49.3438 59.8437 51.1563 59.8437 53.1563C59.8437 56.8438 56.8438 59.8437 53.1563 59.8437Z" fill="#1E1E1E"/>
</svg>
