<svg width="75" height="75" viewBox="0 0 75 75" fill="none" xmlns="http://www.w3.org/2000/svg">
<path d="M65.8125 36.9375L65.3125 36.25C64.4375 35.1875 63.4062 34.3437 62.2187 33.7187C60.625 32.8125 58.8125 32.3438 56.9375 32.3438H18.0312C16.1562 32.3438 14.375 32.8125 12.75 33.7187C11.5312 34.375 10.4375 35.2812 9.53125 36.4062C7.75 38.6875 6.90625 41.5 7.1875 44.3125L8.34375 58.9062C8.75 63.3125 9.28125 68.75 19.1875 68.75H55.8125C65.7188 68.75 66.2187 63.3125 66.6562 58.875L67.8125 44.3437C68.0938 41.7187 67.4062 39.0937 65.8125 36.9375ZM44.9688 54.1875H30C28.7813 54.1875 27.8125 53.1875 27.8125 52C27.8125 50.8125 28.7813 49.8125 30 49.8125H44.9688C46.1875 49.8125 47.1563 50.8125 47.1563 52C47.1563 53.2187 46.1875 54.1875 44.9688 54.1875Z" fill="#1E1E1E"/>
<path d="M64.379 28.6964C64.3952 29.0807 63.9835 29.3338 63.6363 29.1682C61.5664 28.1811 59.3293 27.6875 56.9688 27.6875H18.0312C15.6698 27.6875 13.3578 28.2062 11.3147 29.1776C10.9714 29.3409 10.5625 29.0976 10.5625 28.7174V20.8125C10.5625 9.65625 13.9687 6.25 25.125 6.25H28.8125C33.2812 6.25 34.6875 7.6875 36.5 10.0312L40.25 15.0312C41.0312 16.0938 41.0625 16.1562 42.4375 16.1562H49.875C60.3455 16.1562 63.9779 19.1627 64.379 28.6964Z" fill="#1E1E1E"/>
</svg>
