<svg width="25" height="25" viewBox="0 0 300 300" fill="none" xmlns="http://www.w3.org/2000/svg">
<path d="M257.75 105.625C244.625 47.875 194.25 21.875 150 21.875C150 21.875 150 21.875 149.875 21.875C105.75 21.875 55.2497 47.75 42.1247 105.5C27.4997 170 66.9997 224.625 102.75 259C116 271.75 133 278.125 150 278.125C167 278.125 184 271.75 197.125 259C232.875 224.625 272.375 170.125 257.75 105.625ZM150 168.25C128.25 168.25 110.625 150.625 110.625 128.875C110.625 107.125 128.25 89.5 150 89.5C171.75 89.5 189.375 107.125 189.375 128.875C189.375 150.625 171.75 168.25 150 168.25Z" fill="#292D32"/>
</svg>
