<svg width="75" height="75" viewBox="0 0 75 75" fill="none" xmlns="http://www.w3.org/2000/svg">
<path d="M66.407 57.7187L61.2507 58.9375C60.0945 59.2187 59.1882 60.0937 58.9382 61.25L57.8445 65.8437C57.2507 68.3437 54.0632 69.125 52.407 67.1562L43.0632 56.4062C42.3132 55.5312 42.7195 54.1562 43.8445 53.875C49.3757 52.5312 54.3445 49.4375 58.0007 45.0312C58.5945 44.3125 59.657 44.2187 60.3132 44.875L67.2507 51.8125C69.6258 54.1875 68.782 57.1562 66.407 57.7187Z" fill="#1E1E1E"/>
<path d="M8.43801 57.7187L13.5943 58.9375C14.7505 59.2187 15.6568 60.0937 15.9068 61.25L17.0005 65.8437C17.5943 68.3437 20.7818 69.125 22.438 67.1562L31.7818 56.4062C32.5318 55.5312 32.1255 54.1562 31.0005 53.875C25.4693 52.5312 20.5005 49.4375 16.8443 45.0312C16.2505 44.3125 15.188 44.2187 14.5318 44.875L7.59426 51.8125C5.21926 54.1875 6.06301 57.1562 8.43801 57.7187Z" fill="#1E1E1E"/>
<path d="M37.5 6.25C25.4063 6.25 15.625 16.0313 15.625 28.125C15.625 32.6563 16.9688 36.8125 19.2813 40.2813C22.6563 45.2813 28 48.8125 34.2187 49.7188C35.2812 49.9063 36.375 50 37.5 50C38.625 50 39.7188 49.9063 40.7813 49.7188C47 48.8125 52.3437 45.2813 55.7187 40.2813C58.0312 36.8125 59.375 32.6563 59.375 28.125C59.375 16.0313 49.5937 6.25 37.5 6.25ZM47.0625 27.4375L44.4687 30.0313C44.0312 30.4688 43.7813 31.3125 43.9375 31.9375L44.6875 35.1563C45.2813 37.6875 43.9375 38.6875 41.6875 37.3438L38.5625 35.5C38 35.1563 37.0625 35.1563 36.5 35.5L33.375 37.3438C31.125 38.6563 29.7813 37.6875 30.375 35.1563L31.125 31.9375C31.25 31.3438 31.0312 30.4688 30.5937 30.0313L27.9375 27.4375C26.4062 25.9063 26.9062 24.375 29.0312 24.0313L32.375 23.4688C32.9375 23.375 33.5937 22.875 33.8437 22.375L35.6875 18.6875C36.6875 16.6875 38.3125 16.6875 39.3125 18.6875L41.1563 22.375C41.4063 22.875 42.0625 23.375 42.6562 23.4688L46 24.0313C48.0938 24.375 48.5938 25.9063 47.0625 27.4375Z" fill="#1E1E1E"/>
</svg>
