<svg width="300" height="300" viewBox="0 0 300 300" fill="none" xmlns="http://www.w3.org/2000/svg">
<path d="M269.109 199.117C267.109 195.742 261.484 190.492 247.484 192.992C239.734 194.367 231.859 194.992 223.984 194.617C194.859 193.367 168.484 179.992 150.109 159.367C133.859 141.242 123.859 117.617 123.734 92.1173C123.734 77.8673 126.484 64.1173 132.109 51.1173C137.609 38.4923 133.734 31.8673 130.984 29.1173C128.109 26.2423 121.359 22.2423 108.109 27.7423C56.9841 49.2423 25.3591 100.492 29.1091 155.367C32.8591 206.992 69.1091 251.117 117.109 267.742C128.609 271.742 140.734 274.117 153.234 274.617C155.234 274.742 157.234 274.867 159.234 274.867C201.109 274.867 240.359 255.117 265.109 221.492C273.484 209.867 271.234 202.492 269.109 199.117Z" fill="#292D32"/>
</svg>
