<svg width="25" height="25" viewBox="0 0 300 300" fill="none" xmlns="http://www.w3.org/2000/svg">
<path d="M201.75 37L88.875 74.5C13 99.875 13 141.25 88.875 166.5L122.375 177.625L133.5 211.125C158.75 287 200.25 287 225.5 211.125L263.125 98.375C279.875 47.75 252.375 20.125 201.75 37ZM205.75 104.25L158.25 152C156.375 153.875 154 154.75 151.625 154.75C149.25 154.75 146.875 153.875 145 152C141.375 148.375 141.375 142.375 145 138.75L192.5 91.0001C196.125 87.3751 202.125 87.3751 205.75 91.0001C209.375 94.6251 209.375 100.625 205.75 104.25Z" fill="white"/>
</svg>
