<svg width="75" height="75" viewBox="0 0 75 75" fill="none" xmlns="http://www.w3.org/2000/svg">
<path d="M50.5938 6.25H24.4062C13.0312 6.25 6.25 13.0312 6.25 24.4062V50.5625C6.25 61.9688 13.0312 68.75 24.4062 68.75H50.5625C61.9375 68.75 68.7188 61.9688 68.7188 50.5938V24.4062C68.75 13.0312 61.9688 6.25 50.5938 6.25ZM23.8438 56.7188C23.8438 58 22.7812 59.0625 21.5 59.0625C20.2188 59.0625 19.1562 58 19.1562 56.7188V50.25C19.1562 48.9688 20.2188 47.9062 21.5 47.9062C22.7812 47.9062 23.8438 48.9688 23.8438 50.25V56.7188ZM39.8438 56.7188C39.8438 58 38.7812 59.0625 37.5 59.0625C36.2188 59.0625 35.1562 58 35.1562 56.7188V43.75C35.1562 42.4688 36.2188 41.4062 37.5 41.4062C38.7812 41.4062 39.8438 42.4688 39.8438 43.75V56.7188ZM55.8438 56.7188C55.8438 58 54.7813 59.0625 53.5 59.0625C52.2188 59.0625 51.1563 58 51.1563 56.7188V37.2812C51.1563 36 52.2188 34.9375 53.5 34.9375C54.7813 34.9375 55.8438 36 55.8438 37.2812V56.7188ZM55.8438 27.4063C55.8438 28.6875 54.7813 29.75 53.5 29.75C52.2188 29.75 51.1563 28.6875 51.1563 27.4063V24.375C43.1875 32.5625 33.2188 38.3438 22.0625 41.125C21.875 41.1875 21.6875 41.1875 21.5 41.1875C20.4375 41.1875 19.5 40.4688 19.2188 39.4062C18.9062 38.1562 19.6562 36.875 20.9375 36.5625C31.4688 33.9375 40.8438 28.4062 48.2812 20.5938H44.375C43.0938 20.5938 42.0312 19.5312 42.0312 18.25C42.0312 16.9688 43.0938 15.9062 44.375 15.9062H53.5312C53.6562 15.9062 53.75 15.9688 53.875 15.9688C54.0312 16 54.1875 16 54.3438 16.0625C54.5 16.125 54.625 16.2187 54.7813 16.3125C54.875 16.375 54.9688 16.4062 55.0625 16.4688C55.0938 16.5 55.0938 16.5312 55.125 16.5312C55.25 16.6562 55.3438 16.7812 55.4375 16.9062C55.5312 17.0312 55.625 17.125 55.6562 17.25C55.7188 17.375 55.7188 17.5 55.75 17.6562C55.7812 17.8125 55.8438 17.9688 55.8438 18.1562C55.8438 18.1875 55.875 18.2188 55.875 18.25V27.4063H55.8438Z" fill="#1E1E1E"/>
</svg>
