<svg width="300" height="300" viewBox="0 0 300 300" fill="none" xmlns="http://www.w3.org/2000/svg">
<path d="M150 237.5C198.325 237.5 237.5 198.325 237.5 150C237.5 101.675 198.325 62.5 150 62.5C101.675 62.5 62.5 101.675 62.5 150C62.5 198.325 101.675 237.5 150 237.5Z" fill="#292D32"/>
<path d="M150 287C143.125 287 137.5 281.875 137.5 275V274C137.5 267.125 143.125 261.5 150 261.5C156.875 261.5 162.5 267.125 162.5 274C162.5 280.875 156.875 287 150 287ZM239.25 251.75C236 251.75 232.875 250.5 230.375 248.125L228.75 246.5C223.875 241.625 223.875 233.75 228.75 228.875C233.625 224 241.5 224 246.375 228.875L248 230.5C252.875 235.375 252.875 243.25 248 248.125C245.625 250.5 242.5 251.75 239.25 251.75ZM60.75 251.75C57.5 251.75 54.375 250.5 51.875 248.125C47 243.25 47 235.375 51.875 230.5L53.5 228.875C58.375 224 66.25 224 71.125 228.875C76 233.75 76 241.625 71.125 246.5L69.5 248.125C67.125 250.5 63.875 251.75 60.75 251.75ZM275 162.5H274C267.125 162.5 261.5 156.875 261.5 150C261.5 143.125 267.125 137.5 274 137.5C280.875 137.5 287 143.125 287 150C287 156.875 281.875 162.5 275 162.5ZM26 162.5H25C18.125 162.5 12.5 156.875 12.5 150C12.5 143.125 18.125 137.5 25 137.5C31.875 137.5 38 143.125 38 150C38 156.875 32.875 162.5 26 162.5ZM237.625 74.875C234.375 74.875 231.25 73.625 228.75 71.25C223.875 66.375 223.875 58.5 228.75 53.625L230.375 52C235.25 47.125 243.125 47.125 248 52C252.875 56.875 252.875 64.75 248 69.625L246.375 71.25C244 73.625 240.875 74.875 237.625 74.875ZM62.375 74.875C59.125 74.875 56 73.625 53.5 71.25L51.875 69.5C47 64.625 47 56.75 51.875 51.875C56.75 47 64.625 47 69.5 51.875L71.125 53.5C76 58.375 76 66.25 71.125 71.125C68.75 73.625 65.5 74.875 62.375 74.875ZM150 38C143.125 38 137.5 32.875 137.5 26V25C137.5 18.125 143.125 12.5 150 12.5C156.875 12.5 162.5 18.125 162.5 25C162.5 31.875 156.875 38 150 38Z" fill="#292D32"/>
</svg>
