<svg width="75" height="75" viewBox="0 0 75 75" fill="none" xmlns="http://www.w3.org/2000/svg">
<path d="M37.3125 6.90626L29.7813 24.4375H22.25C21 24.4375 19.7813 24.5313 18.5938 24.7813L21.7188 17.2813L21.8438 17L22.0313 16.5C22.125 16.2813 22.1875 16.0938 22.2813 15.9375C25.9063 7.53126 29.9688 4.90626 37.3125 6.90626Z" fill="#1E1E1E"/>
<path d="M58.5312 25.2812L58.4687 25.25C56.5937 24.7188 54.6875 24.4375 52.75 24.4375H33.1875L40.2188 8.09375L40.3125 7.875C40.75 8.03125 41.2188 8.25 41.6875 8.40625L48.5938 11.3125C52.4375 12.9062 55.125 14.5625 56.7812 16.5625C57.0625 16.9375 57.3125 17.2812 57.5625 17.6875C57.8438 18.125 58.0625 18.5625 58.1875 19.0313C58.3125 19.3125 58.4062 19.5625 58.4687 19.8438C58.9375 21.4375 58.9687 23.25 58.5312 25.2812Z" fill="#1E1E1E"/>
<path d="M39.125 55.1875H39.9063C40.8438 55.1875 41.625 54.3437 41.625 53.3125C41.625 52 41.25 51.8125 40.4375 51.5L39.125 51.0312V55.1875Z" fill="#1E1E1E"/>
<path d="M57.1563 29.75C55.75 29.3438 54.2812 29.125 52.75 29.125H22.25C20.125 29.125 18.125 29.5313 16.25 30.3438C10.8125 32.6875 7 38.0938 7 44.375V50.4688C7 51.2188 7.0625 51.9375 7.15625 52.6875C7.84375 62.625 13.1562 67.9375 23.0937 68.5938C23.8125 68.6875 24.5313 68.75 25.3125 68.75H49.6875C61.25 68.75 67.3438 63.25 67.9375 52.3125C67.9688 51.7188 68 51.0938 68 50.4688V44.375C68 37.4688 63.4063 31.6563 57.1563 29.75ZM41.5 48.4375C42.9375 48.9375 44.875 50 44.875 53.3125C44.875 56.1562 42.6563 58.4375 39.9063 58.4375H39.125V59.125C39.125 60.0313 38.4062 60.75 37.5 60.75C36.5938 60.75 35.875 60.0313 35.875 59.125V58.4375H35.5938C32.5938 58.4375 30.125 55.9062 30.125 52.7812C30.125 51.875 30.8438 51.1563 31.75 51.1563C32.6562 51.1563 33.375 51.875 33.375 52.7812C33.375 54.0937 34.375 55.1875 35.5938 55.1875H35.875V49.9063L33.5 49.0625C32.0625 48.5625 30.125 47.5 30.125 44.1875C30.125 41.3438 32.3438 39.0625 35.0938 39.0625H35.875V38.375C35.875 37.4688 36.5938 36.75 37.5 36.75C38.4062 36.75 39.125 37.4688 39.125 38.375V39.0625H39.4062C42.4062 39.0625 44.875 41.5938 44.875 44.7188C44.875 45.625 44.1562 46.3438 43.25 46.3438C42.3438 46.3438 41.625 45.625 41.625 44.7188C41.625 43.4063 40.625 42.3125 39.4062 42.3125H39.125V47.5938L41.5 48.4375Z" fill="#1E1E1E"/>
<path d="M33.375 44.1875C33.375 45.5 33.75 45.6875 34.5625 46L35.875 46.4688V42.3125H35.0937C34.125 42.3125 33.375 43.1563 33.375 44.1875Z" fill="#1E1E1E"/>
</svg>
